<svg width="1105" height="1296" viewBox="0 0 1105 1296" fill="none" xmlns="http://www.w3.org/2000/svg">
<g clip-path="url(#clip0)">
<rect width="1105" height="1296" fill="white"/>
<rect width="1135" height="1296" fill="#FFC0CB" fill-opacity="0.2"/>
<path d="M281 295C100.6 257.4 -7.5 93 -39 15.5L-74 189.5L-180 753.5C-155.667 942.5 -106.5 1326.1 -104.5 1348.5C-102.5 1370.9 438.667 1390.83 709 1398L1146 1348.5C1160.17 1310.83 1188.5 1232.7 1188.5 1221.5C1188.5 1207.5 1169.5 1118 1085 1106.5C1000.5 1095 868.5 1024 786.5 880.5C704.5 737 638.5 822 513.5 920.5C388.5 1019 542 1038 513.5 1221.5C485 1405 238.5 1233.5 109.5 1024C-19.5 814.5 114 906.5 304.5 695C495 483.5 977 746.5 986.5 601C996 455.5 850 295 744 274C638 253 506.5 342 281 295Z" fill="#FFC0CB" fill-opacity="0.5"/>
<path d="M384 279.5C203.6 241.9 95.5 77.5 64 0L29 174L-77 738C-52.6667 927 -3.5 1310.6 -1.5 1333C0.5 1355.4 541.667 1375.33 812 1382.5L1249 1333C1263.17 1295.33 1291.5 1217.2 1291.5 1206C1291.5 1192 1272.5 1102.5 1188 1091C1103.5 1079.5 971.5 1008.5 889.5 865C807.5 721.5 741.5 806.5 616.5 905C491.5 1003.5 645 1022.5 616.5 1206C588 1389.5 341.5 1218 212.5 1008.5C83.5 799 217 891 407.5 679.5C598 468 1080 731 1089.5 585.5C1099 440 953 279.5 847 258.5C741 237.5 609.5 326.5 384 279.5Z" fill="#FFC0CB" fill-opacity="0.2"/>
<path d="M440 451.5C259.6 413.9 151.5 249.5 120 172L85 346L-21 910C3.33333 1099 52.5 1482.6 54.5 1505C56.5 1527.4 597.667 1547.33 868 1554.5L1305 1505C1319.17 1467.33 1347.5 1389.2 1347.5 1378C1347.5 1364 1328.5 1274.5 1244 1263C1159.5 1251.5 1027.5 1180.5 945.5 1037C863.5 893.5 797.5 978.5 672.5 1077C547.5 1175.5 701 1194.5 672.5 1378C644 1561.5 397.5 1390 268.5 1180.5C139.5 971 273 1063 463.5 851.5C654 640 1136 903 1145.5 757.5C1155 612 1009 451.5 903 430.5C797 409.5 665.5 498.5 440 451.5Z" fill="#FFC0CB" fill-opacity="0.6"/>
<path d="M198 380.5C17.6 342.9 -90.5 178.5 -122 101L-157 275L-263 839C-238.667 1028 -189.5 1411.6 -187.5 1434C-185.5 1456.4 355.667 1476.33 626 1483.5L1063 1434C1077.17 1396.33 1105.5 1318.2 1105.5 1307C1105.5 1293 1086.5 1203.5 1002 1192C917.5 1180.5 785.5 1109.5 703.5 966C621.5 822.5 555.5 907.5 430.5 1006C305.5 1104.5 459 1123.5 430.5 1307C402 1490.5 155.5 1319 26.5 1109.5C-102.5 900 31 992 221.5 780.5C412 569 894 832 903.5 686.5C913 541 767 380.5 661 359.5C555 338.5 423.5 427.5 198 380.5Z" fill="#FFC0CB" fill-opacity="0.1"/>
<path d="M366 508.5C185.6 470.9 77.5 306.5 46 229L11 403L-95 967C-70.6667 1156 -21.5 1539.6 -19.5 1562C-17.5 1584.4 523.667 1604.33 794 1611.5L1231 1562C1245.17 1524.33 1273.5 1446.2 1273.5 1435C1273.5 1421 1254.5 1331.5 1170 1320C1085.5 1308.5 953.5 1237.5 871.5 1094C789.5 950.5 723.5 1035.5 598.5 1134C473.5 1232.5 627 1251.5 598.5 1435C570 1618.5 323.5 1447 194.5 1237.5C65.5 1028 199 1120 389.5 908.5C580 697 1062 960 1071.5 814.5C1081 669 935 508.5 829 487.5C723 466.5 591.5 555.5 366 508.5Z" fill="#FFC0CB" fill-opacity="0.1"/>
<path d="M257 161.5C76.6 123.9 -31.5 -40.5 -63 -118L-98 56L-204 620C-179.667 809 -130.5 1192.6 -128.5 1215C-126.5 1237.4 414.667 1257.33 685 1264.5L1122 1215C1136.17 1177.33 1164.5 1099.2 1164.5 1088C1164.5 1074 1145.5 984.5 1061 973C976.5 961.5 844.5 890.5 762.5 747C680.5 603.5 614.5 688.5 489.5 787C364.5 885.5 518 904.5 489.5 1088C461 1271.5 214.5 1100 85.5 890.5C-43.5 681 90 773 280.5 561.5C471 350 953 613 962.5 467.5C972 322 826 161.5 720 140.5C614 119.5 482.5 208.5 257 161.5Z" fill="#FFC0CB" fill-opacity="0.1"/>
<path d="M398 56.5C217.6 18.9 109.5 -145.5 78 -223L43 -49L-63 515C-38.6667 704 10.5 1087.6 12.5 1110C14.5 1132.4 555.667 1152.33 826 1159.5L1263 1110C1277.17 1072.33 1305.5 994.2 1305.5 983C1305.5 969 1286.5 879.5 1202 868C1117.5 856.5 985.5 785.5 903.5 642C821.5 498.5 755.5 583.5 630.5 682C505.5 780.5 659 799.5 630.5 983C602 1166.5 355.5 995 226.5 785.5C97.5 576 231 668 421.5 456.5C612 245 1094 508 1103.5 362.5C1113 217 967 56.5 861 35.5C755 14.5 623.5 103.5 398 56.5Z" fill="#FFC0CB" fill-opacity="0.1"/>
</g>
<defs>
<clipPath id="clip0">
<rect width="1105" height="1296" fill="white"/>
</clipPath>
</defs>
</svg>
